<svg xmlns="http://www.w3.org/2000/svg" width="42" height="42" viewBox="0 0 42 42" fill="none"><path fill-rule="evenodd" clip-rule="evenodd" d="M28.4375 12.25C28.4375 12.5981 28.2992 12.9319 28.0531 13.1781C27.8069 13.4242 27.4731 13.5625 27.125 13.5625C26.7769 13.5625 26.4431 13.4242 26.1969 13.1781C25.9508 12.9319 25.8125 12.5981 25.8125 12.25V9.625C25.8125 8.34865 25.3055 7.12457 24.403 6.22205C23.5004 5.31953 22.2764 4.8125 21 4.8125C19.7236 4.8125 18.4996 5.31953 17.597 6.22205C16.6945 7.12457 16.1875 8.34865 16.1875 9.625V12.25C16.1875 12.5981 16.0492 12.9319 15.8031 13.1781C15.5569 13.4242 15.2231 13.5625 14.875 13.5625C14.5269 13.5625 14.1931 13.4242 13.9469 13.1781C13.7008 12.9319 13.5625 12.5981 13.5625 12.25V9.625C13.5625 7.65245 14.3461 5.7607 15.7409 4.36589C17.1357 2.97109 19.0275 2.1875 21 2.1875C22.9725 2.1875 24.8643 2.97109 26.2591 4.36589C27.6539 5.7607 28.4375 7.65245 28.4375 9.625V12.25Z" fill="white"></path><path fill-rule="evenodd" clip-rule="evenodd" d="M33.8488 14.6125L35.2488 35.6125C35.284 36.1503 35.2085 36.6896 35.027 37.1971C34.8456 37.7046 34.562 38.1696 34.1938 38.5632C33.8256 38.9568 33.3807 39.2707 32.8864 39.4856C32.3921 39.7005 31.859 39.8117 31.3201 39.8125H10.6806C10.1414 39.8122 9.60811 39.7013 9.11359 39.4866C8.61907 39.2719 8.17388 38.958 7.8056 38.5643C7.43731 38.1706 7.15376 37.7054 6.97249 37.1977C6.79123 36.69 6.71612 36.1504 6.7518 35.6125L8.1518 14.6125C8.21839 13.6159 8.66126 12.6818 9.39072 11.9995C10.1202 11.3171 11.0817 10.9375 12.0806 10.9375H29.9201C30.9189 10.9375 31.8804 11.3171 32.6099 11.9995C33.3393 12.6818 33.7822 13.6159 33.8488 14.6125ZM25.3508 18.6865C24.9595 19.5089 24.3432 20.2036 23.5732 20.69C22.8032 21.1763 21.9111 21.4345 21.0003 21.4345C20.0896 21.4345 19.1975 21.1763 18.4274 20.69C17.6574 20.2036 17.0411 19.5089 16.6498 18.6865C16.5758 18.5308 16.4719 18.3912 16.3439 18.2757C16.216 18.1601 16.0665 18.071 15.9041 18.0132C15.7417 17.9554 15.5695 17.9302 15.3973 17.939C15.2251 17.9478 15.0564 17.9904 14.9007 18.0644C14.745 18.1384 14.6054 18.2423 14.4899 18.3703C14.3743 18.4982 14.2851 18.6477 14.2274 18.8101C14.1696 18.9725 14.1444 19.1447 14.1532 19.3169C14.1619 19.4891 14.2046 19.6578 14.2786 19.8135C14.8813 21.0862 15.833 22.1616 17.0229 22.9147C18.2128 23.6677 19.5921 24.0675 21.0003 24.0675C22.4085 24.0675 23.7878 23.6677 24.9777 22.9147C26.1676 22.1616 27.1193 21.0862 27.7221 19.8135C27.7961 19.6578 27.8387 19.4891 27.8474 19.3169C27.8562 19.1447 27.831 18.9725 27.7732 18.8101C27.7155 18.6477 27.6263 18.4982 27.5108 18.3703C27.3952 18.2423 27.2556 18.1384 27.0999 18.0644C26.9442 17.9904 26.7755 17.9478 26.6033 17.939C26.4312 17.9302 26.2589 17.9554 26.0965 18.0132C25.9341 18.071 25.7846 18.1601 25.6567 18.2757C25.5287 18.3912 25.4248 18.5308 25.3508 18.6865Z" fill="white"></path></svg>