<svg xmlns="http://www.w3.org/2000/svg" xmlns:xlink="http://www.w3.org/1999/xlink" width="120" viewBox="0 0 90 89.999999" height="120" preserveAspectRatio="xMidYMid meet"><defs><clipPath id="3d907111c6"><path d="M 9 2.539062 L 82 2.539062 L 82 85.789062 L 9 85.789062 Z M 9 2.539062 " clip-rule="nonzero"></path></clipPath><clipPath id="619f179c21"><path d="M 67 39 L 78 39 L 78 51.53125 L 67 51.53125 Z M 67 39 " clip-rule="nonzero"></path></clipPath><clipPath id="949c4f952a"><path d="M 14 33.53125 L 65 33.53125 L 65 51.53125 L 14 51.53125 Z M 14 33.53125 " clip-rule="nonzero"></path></clipPath><clipPath id="65fd73a1f6"><path d="M 27 40 L 61 40 L 61 51.53125 L 27 51.53125 Z M 27 40 " clip-rule="nonzero"></path></clipPath></defs><g clip-path="url(#3d907111c6)"><path fill="#ffffff" d="M 9.148438 25.660156 L 9.148438 63.347656 C 9.148438 64.75 9.894531 66.054688 11.105469 66.753906 L 43.617188 85.609375 C 44.832031 86.3125 46.324219 86.3125 47.539062 85.609375 L 80.035156 66.761719 C 81.25 66.050781 81.992188 64.757812 81.996094 63.355469 L 81.996094 25.660156 C 81.996094 24.257812 81.246094 22.957031 80.03125 22.246094 L 47.542969 3.410156 C 46.328125 2.707031 44.828125 2.707031 43.621094 3.410156 L 43.613281 3.414062 L 11.101562 22.25 C 9.890625 22.957031 9.148438 24.257812 9.148438 25.660156 Z M 9.148438 25.660156 " fill-opacity="1" fill-rule="nonzero"></path></g><g clip-path="url(#619f179c21)"><path fill="#83cd29" d="M 72.714844 39.902344 C 72.5625 39.902344 72.410156 39.9375 72.277344 40.011719 L 68.046875 42.445312 C 67.773438 42.601562 67.605469 42.898438 67.605469 43.214844 L 67.605469 48.074219 C 67.605469 48.390625 67.773438 48.6875 68.046875 48.84375 L 69.152344 49.480469 C 69.6875 49.742188 69.886719 49.738281 70.128906 49.738281 C 70.925781 49.738281 71.378906 49.257812 71.378906 48.425781 L 71.378906 43.628906 C 71.378906 43.5625 71.320312 43.511719 71.253906 43.511719 L 70.722656 43.511719 C 70.65625 43.511719 70.597656 43.5625 70.597656 43.628906 L 70.597656 48.425781 C 70.597656 48.796875 70.210938 49.167969 69.582031 48.855469 L 68.433594 48.183594 C 68.394531 48.164062 68.363281 48.121094 68.363281 48.078125 L 68.363281 43.21875 C 68.363281 43.171875 68.394531 43.125 68.433594 43.101562 L 72.65625 40.675781 C 72.695312 40.652344 72.742188 40.652344 72.78125 40.675781 L 77 43.101562 C 77.042969 43.125 77.074219 43.167969 77.074219 43.21875 L 77.074219 48.078125 C 77.074219 48.125 77.050781 48.171875 77.011719 48.191406 L 72.78125 50.617188 C 72.742188 50.640625 72.695312 50.640625 72.65625 50.617188 L 71.570312 49.976562 C 71.535156 49.957031 71.492188 49.957031 71.460938 49.976562 C 71.160156 50.144531 71.105469 50.164062 70.824219 50.261719 C 70.753906 50.285156 70.648438 50.324219 70.859375 50.441406 L 72.277344 51.273438 C 72.414062 51.351562 72.5625 51.390625 72.71875 51.390625 C 72.875 51.390625 73.023438 51.351562 73.160156 51.273438 L 77.386719 48.847656 C 77.660156 48.6875 77.828125 48.394531 77.828125 48.078125 L 77.828125 43.21875 C 77.828125 42.902344 77.660156 42.605469 77.386719 42.449219 L 73.160156 40.015625 C 73.027344 39.9375 72.875 39.90625 72.71875 39.90625 Z M 73.847656 43.378906 C 72.644531 43.378906 71.925781 43.886719 71.925781 44.738281 C 71.925781 45.65625 72.636719 45.914062 73.792969 46.027344 C 75.175781 46.160156 75.285156 46.363281 75.285156 46.636719 C 75.285156 47.105469 74.910156 47.304688 74.019531 47.304688 C 72.902344 47.304688 72.65625 47.027344 72.574219 46.472656 C 72.5625 46.414062 72.515625 46.367188 72.457031 46.367188 L 71.90625 46.367188 C 71.824219 46.367188 71.785156 46.410156 71.78125 46.492188 C 71.78125 47.199219 72.167969 48.039062 74.015625 48.039062 C 75.355469 48.039062 76.128906 47.515625 76.128906 46.597656 C 76.128906 45.691406 75.503906 45.445312 74.207031 45.273438 C 72.894531 45.097656 72.769531 45.015625 72.769531 44.710938 C 72.769531 44.457031 72.875 44.117188 73.847656 44.117188 C 74.714844 44.117188 75.035156 44.304688 75.167969 44.886719 C 75.179688 44.941406 75.226562 44.988281 75.285156 44.988281 L 75.832031 44.988281 C 75.867188 44.988281 75.898438 44.96875 75.921875 44.941406 C 75.945312 44.917969 75.960938 44.886719 75.957031 44.851562 C 75.875 43.847656 75.203125 43.375 73.847656 43.375 Z M 73.847656 43.378906 " fill-opacity="1" fill-rule="nonzero"></path></g><g clip-path="url(#949c4f952a)"><path fill="#404137" d="M 47.851562 33.53125 C 47.804688 33.53125 47.757812 33.546875 47.71875 33.570312 C 47.628906 33.621094 47.582031 33.699219 47.582031 33.800781 L 47.582031 40.648438 C 47.582031 40.714844 47.550781 40.777344 47.492188 40.808594 C 47.429688 40.847656 47.367188 40.847656 47.304688 40.808594 L 46.183594 40.164062 C 46.003906 40.0625 45.824219 40.0625 45.644531 40.164062 L 41.164062 42.742188 C 40.996094 42.839844 40.894531 43.023438 40.894531 43.21875 L 40.894531 48.371094 C 40.894531 48.578125 40.984375 48.734375 41.164062 48.839844 L 45.644531 51.414062 C 45.824219 51.519531 46.003906 51.519531 46.183594 51.414062 L 50.664062 48.839844 C 50.84375 48.734375 50.933594 48.578125 50.933594 48.371094 L 50.933594 35.519531 C 50.933594 35.324219 50.824219 35.140625 50.652344 35.046875 L 47.988281 33.558594 C 47.945312 33.535156 47.898438 33.53125 47.851562 33.53125 Z M 19.027344 39.96875 C 18.941406 39.972656 18.863281 39.988281 18.785156 40.03125 L 14.304688 42.609375 C 14.125 42.710938 14.035156 42.867188 14.035156 43.074219 L 14.042969 49.992188 C 14.042969 50.089844 14.09375 50.179688 14.179688 50.226562 C 14.261719 50.273438 14.367188 50.273438 14.449219 50.226562 L 17.105469 48.703125 C 17.273438 48.605469 17.386719 48.429688 17.386719 48.238281 L 17.386719 45.007812 C 17.386719 44.8125 17.488281 44.636719 17.65625 44.542969 L 18.785156 43.886719 C 18.867188 43.839844 18.957031 43.816406 19.054688 43.816406 C 19.152344 43.816406 19.242188 43.839844 19.324219 43.886719 L 20.457031 44.542969 C 20.625 44.636719 20.726562 44.8125 20.726562 45.007812 L 20.726562 48.238281 C 20.726562 48.429688 20.835938 48.605469 21.003906 48.703125 L 23.660156 50.226562 C 23.746094 50.273438 23.847656 50.273438 23.929688 50.226562 C 24.011719 50.175781 24.066406 50.089844 24.066406 49.992188 L 24.074219 43.074219 C 24.074219 42.867188 23.984375 42.710938 23.804688 42.609375 L 19.324219 40.03125 C 19.25 39.988281 19.167969 39.972656 19.082031 39.96875 Z M 59.292969 40.03125 C 59.195312 40.03125 59.105469 40.054688 59.023438 40.101562 L 54.542969 42.679688 C 54.375 42.777344 54.273438 42.953125 54.273438 43.144531 L 54.273438 48.300781 C 54.273438 48.496094 54.382812 48.671875 54.550781 48.765625 L 58.996094 51.292969 C 59.160156 51.386719 59.359375 51.390625 59.523438 51.300781 L 62.21875 49.804688 C 62.304688 49.757812 62.363281 49.671875 62.363281 49.574219 C 62.363281 49.476562 62.3125 49.386719 62.226562 49.339844 L 57.71875 46.761719 C 57.636719 46.714844 57.574219 46.617188 57.574219 46.519531 L 57.574219 44.910156 C 57.574219 44.8125 57.636719 44.722656 57.71875 44.675781 L 59.121094 43.871094 C 59.203125 43.824219 59.304688 43.824219 59.390625 43.871094 L 60.792969 44.675781 C 60.882812 44.726562 60.929688 44.804688 60.929688 44.910156 L 60.929688 46.179688 C 60.929688 46.28125 60.972656 46.359375 61.0625 46.414062 C 61.148438 46.460938 61.25 46.460938 61.332031 46.414062 L 64.015625 44.855469 C 64.183594 44.757812 64.285156 44.582031 64.285156 44.390625 L 64.285156 43.144531 C 64.285156 42.9375 64.195312 42.785156 64.015625 42.679688 L 59.5625 40.101562 C 59.480469 40.054688 59.390625 40.03125 59.292969 40.03125 Z M 45.894531 43.878906 C 45.917969 43.878906 45.945312 43.886719 45.964844 43.898438 L 47.5 44.785156 C 47.542969 44.808594 47.574219 44.851562 47.574219 44.898438 L 47.574219 46.671875 C 47.574219 46.71875 47.542969 46.765625 47.5 46.789062 L 45.964844 47.675781 C 45.925781 47.699219 45.875 47.699219 45.832031 47.675781 L 44.296875 46.789062 C 44.253906 46.765625 44.222656 46.71875 44.222656 46.671875 L 44.222656 44.902344 C 44.222656 44.851562 44.253906 44.808594 44.296875 44.785156 L 45.832031 43.898438 C 45.851562 43.886719 45.871094 43.878906 45.894531 43.878906 Z M 45.894531 43.878906 " fill-opacity="1" fill-rule="nonzero"></path></g><g clip-path="url(#65fd73a1f6)"><path fill="#83cd29" d="M 32.488281 40.003906 C 32.390625 40.003906 32.300781 40.027344 32.21875 40.074219 L 27.738281 42.644531 C 27.570312 42.742188 27.46875 42.925781 27.46875 43.117188 L 27.46875 48.273438 C 27.46875 48.480469 27.558594 48.636719 27.738281 48.738281 L 32.21875 51.316406 C 32.398438 51.421875 32.578125 51.421875 32.757812 51.316406 L 37.238281 48.738281 C 37.417969 48.636719 37.507812 48.480469 37.507812 48.273438 L 37.507812 43.117188 C 37.507812 42.925781 37.40625 42.742188 37.238281 42.644531 L 32.757812 40.074219 C 32.671875 40.027344 32.582031 40.003906 32.488281 40.003906 Z M 59.28125 44.605469 C 59.265625 44.605469 59.246094 44.605469 59.230469 44.613281 L 58.367188 45.113281 C 58.332031 45.132812 58.3125 45.164062 58.3125 45.203125 L 58.3125 46.1875 C 58.3125 46.226562 58.335938 46.257812 58.367188 46.277344 L 59.230469 46.769531 C 59.261719 46.789062 59.292969 46.789062 59.328125 46.769531 L 60.191406 46.277344 C 60.222656 46.261719 60.242188 46.226562 60.242188 46.1875 L 60.242188 45.203125 C 60.242188 45.167969 60.222656 45.132812 60.191406 45.113281 L 59.328125 44.613281 C 59.3125 44.605469 59.300781 44.605469 59.28125 44.605469 Z M 59.28125 44.605469 " fill-opacity="1" fill-rule="nonzero"></path></g></svg>