<svg
                              xmlns="http://www.w3.org/2000/svg"
                              width="56"
                              height="55"
                              viewBox="0 0 56 55"
                              fill="none"
                            >
                              <rect
                                x="0.942285"
                                y="0.911035"
                                width="53.7003"
                                height="53.5013"
                                rx="26.7507"
                                fill="#021D3D"
                              ></rect>
                              <rect
                                x="0.942285"
                                y="0.911035"
                                width="53.7003"
                                height="53.5013"
                                rx="26.7507"
                                stroke="#20528D"
                                strokeWidth="0.829882"
                              ></rect>
                              <path
                                d="M37.855 16.9043H17.73C17.1499 16.9045 16.5936 17.1433 16.1834 17.5681C15.7733 17.993 15.5427 18.5691 15.5425 19.1699V21.8751H40.0425V19.1699C40.0422 18.5691 39.8117 17.993 39.4015 17.5681C38.9913 17.1433 38.4351 16.9045 37.855 16.9043ZM27.3944 19.8451H19.0906C18.9746 19.8451 18.8633 19.7973 18.7812 19.7124C18.6992 19.6274 18.6531 19.5121 18.6531 19.392C18.6531 19.2718 18.6992 19.1565 18.7812 19.0715C18.8633 18.9866 18.9746 18.9388 19.0906 18.9388H27.3944C27.5104 18.9388 27.6217 18.9866 27.7037 19.0715C27.7858 19.1565 27.8319 19.2718 27.8319 19.392C27.8319 19.5121 27.7858 19.6274 27.7037 19.7124C27.6217 19.7973 27.5104 19.8451 27.3944 19.8451ZM31.4194 19.8949C31.3227 19.8954 31.2281 19.8661 31.1475 19.8107C31.067 19.7554 31.0041 19.6765 30.9669 19.5841C30.9297 19.4917 30.9199 19.3899 30.9386 19.2917C30.9574 19.1935 31.0039 19.1032 31.0722 19.0324C31.1406 18.9616 31.2277 18.9135 31.3225 18.8941C31.4174 18.8746 31.5156 18.8848 31.6049 18.9234C31.6941 18.9619 31.7702 19.027 31.8237 19.1104C31.8771 19.1938 31.9054 19.2918 31.905 19.392C31.9045 19.5252 31.8532 19.6529 31.7622 19.7471C31.6713 19.8413 31.548 19.8944 31.4194 19.8949ZM33.7119 19.8949C33.6152 19.8954 33.5206 19.8661 33.44 19.8107C33.3595 19.7554 33.2966 19.6765 33.2594 19.5841C33.2222 19.4917 33.2124 19.3899 33.2311 19.2917C33.2499 19.1935 33.2964 19.1032 33.3647 19.0324C33.4331 18.9616 33.5202 18.9135 33.615 18.8941C33.7099 18.8746 33.8081 18.8848 33.8974 18.9234C33.9866 18.9619 34.0627 19.027 34.1162 19.1104C34.1696 19.1938 34.1979 19.2918 34.1975 19.392C34.197 19.5252 34.1457 19.6529 34.0547 19.7471C33.9638 19.8413 33.8405 19.8944 33.7119 19.8949ZM36.0044 19.8949C35.9079 19.8945 35.8137 19.8644 35.7337 19.8085C35.6537 19.7526 35.5916 19.6734 35.555 19.5809C35.5185 19.4884 35.5093 19.3868 35.5285 19.2889C35.5478 19.191 35.5946 19.1012 35.6632 19.0308C35.7317 18.9605 35.8188 18.9128 35.9135 18.8937C36.0082 18.8747 36.1063 18.8851 36.1952 18.9238C36.2842 18.9624 36.3601 19.0275 36.4134 19.1109C36.4666 19.1942 36.4948 19.292 36.4944 19.392C36.4941 19.4583 36.4813 19.524 36.4565 19.5852C36.4317 19.6464 36.3956 19.702 36.3501 19.7487C36.3045 19.7954 36.2506 19.8324 36.1913 19.8575C36.1319 19.8825 36.0684 19.8953 36.0044 19.8949ZM15.5425 22.7813V36.153C15.5427 36.7539 15.7733 37.33 16.1834 37.7548C16.5936 38.1797 17.1499 38.4184 17.73 38.4187H37.855C38.4351 38.4184 38.9913 38.1797 39.4015 37.7548C39.8117 37.33 40.0422 36.7539 40.0425 36.153V22.7813H15.5425ZM30.5837 27.3941C30.4984 27.3124 30.448 27.199 30.4435 27.0787C30.439 26.9585 30.4808 26.8413 30.5597 26.753C30.6386 26.6646 30.7481 26.6124 30.8642 26.6077C30.9803 26.603 31.0934 26.6463 31.1787 26.728L34.6744 30.0766C34.7183 30.1199 34.7533 30.1719 34.7774 30.2295C34.8014 30.2871 34.814 30.3492 34.8144 30.412C34.814 30.4741 34.8014 30.5354 34.7773 30.5923C34.7532 30.6492 34.7182 30.7004 34.6744 30.7427L31.1787 34.0959C31.0967 34.1712 30.9909 34.2131 30.8812 34.2137C30.7936 34.2134 30.7081 34.1858 30.6358 34.1346C30.5634 34.0833 30.5076 34.0108 30.4756 33.9263C30.4435 33.8418 30.4367 33.7494 30.456 33.6608C30.4753 33.5723 30.5198 33.4918 30.5837 33.4298L33.7294 30.412L30.5837 27.3941ZM25.7844 35.5323L28.8031 25.4049C28.8197 25.3479 28.8471 25.2948 28.8837 25.2488C28.9203 25.2028 28.9653 25.1648 29.0162 25.137C29.0671 25.1092 29.1228 25.0921 29.1801 25.0867C29.2374 25.0814 29.2951 25.0879 29.35 25.1059C29.4604 25.142 29.5525 25.2217 29.6066 25.3277C29.6606 25.4337 29.6722 25.5575 29.6387 25.6723L26.62 35.7996C26.5926 35.8916 26.5374 35.972 26.4626 36.0291C26.3878 36.0862 26.2973 36.1169 26.2044 36.1168C26.16 36.1175 26.1158 36.1114 26.0731 36.0987C25.9627 36.0626 25.8705 35.9829 25.8165 35.8768C25.7625 35.7708 25.7509 35.647 25.7844 35.5323ZM20.9106 30.0766L24.4062 26.728C24.4915 26.6463 24.6046 26.603 24.7207 26.6077C24.8368 26.6124 24.9464 26.6646 25.0253 26.753C25.1042 26.8413 25.146 26.9585 25.1415 27.0787C25.137 27.199 25.0865 27.3124 25.0012 27.3941L21.8556 30.412L25.0012 33.4298C25.0652 33.4918 25.1097 33.5723 25.129 33.6608C25.1483 33.7494 25.1415 33.8418 25.1094 33.9263C25.0773 34.0108 25.0215 34.0833 24.9492 34.1346C24.8769 34.1858 24.7914 34.2134 24.7037 34.2137C24.594 34.2131 24.4883 34.1712 24.4062 34.0959L20.9106 30.7427C20.8668 30.7004 20.8317 30.6492 20.8077 30.5923C20.7836 30.5354 20.771 30.4741 20.7706 30.412C20.7709 30.3492 20.7835 30.2871 20.8076 30.2295C20.8316 30.1719 20.8667 30.1199 20.9106 30.0766Z"
                                fill="white"
                              ></path>
                            </svg>