<svg
                              xmlns="http://www.w3.org/2000/svg"
                              width="56"
                              height="55"
                              viewBox="0 0 56 55"
                              fill="none"
                            >
                              <rect
                                x="0.942285"
                                y="0.911035"
                                width="53.7003"
                                height="53.5013"
                                rx="26.7507"
                                fill="#021D3D"
                              ></rect>
                              <rect
                                x="0.942285"
                                y="0.911035"
                                width="53.7003"
                                height="53.5013"
                                rx="26.7507"
                                stroke="#20528D"
                                strokeWidth="0.829882"
                              ></rect>
                              <g clipPath="url(#clip0_300_1002)">
                                <path
                                  d="M25.7649 24.2303C31.5487 24.2303 36.2374 21.9763 36.2374 19.1959C36.2374 16.4156 31.5487 14.1616 25.7649 14.1616C19.9811 14.1616 15.2925 16.4156 15.2925 19.1959C15.2925 21.9763 19.9811 24.2303 25.7649 24.2303Z"
                                  fill="white"
                                ></path>
                                <path
                                  d="M28.1901 37.6849C27.8336 37.586 27.5105 37.3793 27.2589 37.0892C27.0073 36.7991 26.8374 36.4375 26.7693 36.0469C26.438 36.0626 26.1029 36.0709 25.7649 36.0709C19.98 36.0709 15.2925 33.8189 15.2925 31.0366V34.8858C15.2925 37.6671 19.98 39.9202 25.7649 39.9202C26.5969 39.9202 27.4027 39.8689 28.1794 39.78C28.009 39.4611 27.9202 39.0991 27.9221 38.7309C27.924 38.3627 28.0164 38.0017 28.1901 37.6849Z"
                                  fill="white"
                                ></path>
                                <path
                                  d="M25.7649 34.6901C26.0923 34.6901 26.4138 34.6807 26.7334 34.6671V34.0897C26.7334 33.1232 27.3445 32.2917 28.1997 32.0616C27.9805 31.6612 27.8912 31.1934 27.946 30.7321C27.2419 30.8032 26.5136 30.8419 25.7649 30.8419C19.98 30.8419 15.2925 28.5899 15.2925 25.8076V29.6568C15.2934 32.4371 19.98 34.6901 25.7649 34.6901Z"
                                  fill="white"
                                ></path>
                                <path
                                  d="M25.7649 29.4602C26.7993 29.4602 27.7968 29.3859 28.7411 29.251L29.5237 28.4059C29.8257 28.0778 30.2203 27.8675 30.6451 27.8083C31.07 27.749 31.501 27.8441 31.8704 28.0785C31.9791 27.6314 32.2218 27.2358 32.5607 26.9535C32.8996 26.6711 33.3155 26.5179 33.7435 26.5179H35.1962C35.2224 26.5179 35.2485 26.5241 35.2737 26.5252C35.8868 25.8861 36.2364 25.1759 36.2364 24.4259V20.5767C36.2364 23.3579 31.5488 25.611 25.764 25.611C19.9791 25.611 15.2935 23.3579 15.2935 20.5767V24.4259C15.2935 27.2072 19.98 29.4602 25.7649 29.4602ZM40.2925 35.6577V34.0887L38.5637 33.7833C38.4631 33.347 38.3032 32.9293 38.0891 32.5438L39.0964 30.9936L38.0688 29.8838L36.6509 30.9853C36.2931 30.7508 35.9046 30.5762 35.4984 30.4675L35.1962 28.6098H33.7435L33.4636 30.4623C33.0566 30.5693 32.6668 30.7417 32.3072 30.9737L30.8932 29.8838L29.8656 30.9936L30.8602 32.5291C30.6416 32.918 30.479 33.3405 30.3779 33.7822L28.6704 34.0887V35.6577L30.3769 35.984C30.4786 36.4327 30.6423 36.8532 30.8593 37.2381L29.851 38.7601L30.8786 39.8709L32.3023 38.7946C32.6587 39.0257 33.0471 39.1994 33.4587 39.3092L33.7435 41.1616H35.1962L35.5013 39.304C35.9067 39.1936 36.2945 39.0184 36.6519 38.7841L38.0862 39.8709L39.1129 38.7601L38.0891 37.2256C38.3038 36.8397 38.4634 36.4212 38.5627 35.984L40.2925 35.6577ZM34.4815 37.0739C34.2153 37.0739 33.9518 37.0172 33.706 36.9071C33.4601 36.7971 33.2367 36.6358 33.0486 36.4325C32.8604 36.2292 32.7112 35.9879 32.6094 35.7223C32.5076 35.4567 32.4553 35.1721 32.4554 34.8847C32.4554 34.5973 32.5079 34.3127 32.6098 34.0471C32.7117 33.7816 32.861 33.5404 33.0493 33.3372C33.2375 33.134 33.461 32.9728 33.7069 32.8629C33.9528 32.753 34.2163 32.6964 34.4824 32.6965C35.0199 32.6966 35.5353 32.9274 35.9153 33.3379C36.2953 33.7485 36.5087 34.3052 36.5085 34.8857C36.5084 35.4662 36.2948 36.0229 35.9146 36.4332C35.5345 36.8436 35.019 37.0741 34.4815 37.0739Z"
                                  fill="white"
                                ></path>
                              </g>
                              <defs>
                                <clipPath id="clip0_300_1002">
                                  <rect
                                    width="25"
                                    height="27"
                                    fill="white"
                                    transform="translate(15.2925 14.1616)"
                                  ></rect>
                                </clipPath>
                              </defs>
                            </svg>