<svg
                              xmlns="http://www.w3.org/2000/svg"
                              width="56"
                              height="55"
                              viewBox="0 0 56 55"
                              fill="none"
                            >
                              <rect
                                x="0.941308"
                                y="0.910546"
                                width="53.7003"
                                height="53.5013"
                                rx="26.7507"
                                fill="#021D3D"
                              ></rect>
                              <rect
                                x="0.941308"
                                y="0.910546"
                                width="53.7003"
                                height="53.5013"
                                rx="26.7507"
                                stroke="#20528D"
                                strokeWidth="0.829882"
                              ></rect>
                              <path
                                d="M37.4821 15.9473H18.1008C16.6833 15.9473 15.5327 17.1801 15.5327 18.6988V21.7223H40.0502V18.6988C40.0502 17.1801 38.8996 15.9473 37.4821 15.9473ZM19.0415 20.0676C18.4552 20.0676 17.9827 19.5613 17.9827 18.9332C17.9827 18.3051 18.4552 17.8035 19.0415 17.8035C19.6277 17.8035 20.0958 18.3098 20.0958 18.9332C20.0958 19.5566 19.6233 20.0676 19.0415 20.0676ZM22.4671 20.0676C21.8808 20.0676 21.4083 19.5613 21.4083 18.9332C21.4083 18.3051 21.8808 17.8035 22.4671 17.8035C23.0533 17.8035 23.5215 18.3098 23.5215 18.9332C23.5215 19.5566 23.049 20.0676 22.4671 20.0676ZM37.1627 19.402H25.6696C25.429 19.402 25.2321 19.191 25.2321 18.9332C25.2321 18.6754 25.429 18.4645 25.6696 18.4645H37.1627C37.4033 18.4645 37.6002 18.6754 37.6002 18.9332C37.6002 19.191 37.4033 19.402 37.1627 19.402ZM29.4452 25.5895C29.4452 25.0223 29.0165 24.5629 28.4871 24.5629H27.0215C26.4921 24.5629 26.0633 25.0223 26.0633 25.5895V26.7941H29.4452V25.5895Z"
                                fill="white"
                              ></path>
                              <path
                                d="M15.5327 22.6597V36.6237C15.5327 38.1425 16.6833 39.3753 18.1008 39.3753H37.4865C38.904 39.3753 40.0546 38.1425 40.0546 36.6237V22.6597H15.5327ZM31.5846 36.5675H23.994C23.2415 36.5675 22.629 35.9112 22.629 35.105L23.1715 27.38C23.1933 27.0519 23.4515 26.794 23.7577 26.794H24.309V28.5378C24.309 28.7956 24.5058 29.0065 24.7465 29.0065C24.9871 29.0065 25.184 28.7956 25.184 28.5378V25.5894C25.184 24.5065 26.0065 23.6253 27.0171 23.6253H28.4827C29.4933 23.6253 30.3158 24.5065 30.3158 25.5894V28.5378C30.3158 28.7956 30.5127 29.0065 30.7533 29.0065C30.994 29.0065 31.1908 28.7956 31.1908 28.5378V26.794H31.8165C32.1271 26.794 32.3808 27.0472 32.4027 27.38L32.6302 30.6144L32.2015 30.4315C31.9644 30.3309 31.7023 30.3202 31.4588 30.4012C31.2152 30.4822 31.0049 30.65 30.8627 30.8769C30.6527 31.205 30.609 31.6222 30.7446 31.9972L32.3371 36.3284C32.1227 36.4831 31.8646 36.5722 31.589 36.5722L31.5846 36.5675ZM36.734 36.0284L35.9727 36.844C35.9253 36.8936 35.8617 36.9213 35.7955 36.9213C35.7293 36.9213 35.6657 36.8936 35.6183 36.844L34.4721 35.6159L33.6977 36.4456C33.5708 36.5815 33.3521 36.5347 33.2865 36.3565L31.5583 31.6503C31.4796 31.43 31.6808 31.219 31.8821 31.3034L36.2746 33.155C36.4408 33.2253 36.489 33.4597 36.3577 33.5956L35.5833 34.4253L36.7296 35.6534C36.8258 35.7565 36.8258 35.93 36.7296 36.0331L36.734 36.0284Z"
                                fill="white"
                              ></path>
                            </svg>