<svg
                              xmlns="http://www.w3.org/2000/svg"
                              width="56"
                              height="55"
                              viewBox="0 0 56 55"
                              fill="none"
                            >
                              <rect
                                x="0.943261"
                                y="0.911035"
                                width="53.7003"
                                height="53.5013"
                                rx="26.7507"
                                fill="#021D3D"
                              ></rect>
                              <rect
                                x="0.943261"
                                y="0.911035"
                                width="53.7003"
                                height="53.5013"
                                rx="26.7507"
                                stroke="#20528D"
                                strokeWidth="0.829882"
                              ></rect>
                              <path
                                d="M28.6685 14.9741H18.1685C17.4723 14.9741 16.8046 15.2606 16.3123 15.7704C15.82 16.2803 15.5435 16.9718 15.5435 17.6929V37.6304C15.5435 38.3514 15.82 39.043 16.3123 39.5528C16.8046 40.0627 17.4723 40.3491 18.1685 40.3491H28.6685C29.3647 40.3491 30.0323 40.0627 30.5246 39.5528C31.0169 39.043 31.2935 38.3514 31.2935 37.6304V17.6929C31.2935 16.9718 31.0169 16.2803 30.5246 15.7704C30.0323 15.2606 29.3647 14.9741 28.6685 14.9741ZM30.4185 37.1772C30.4185 38.4261 29.4376 39.4429 28.231 39.4429H18.606C18.026 39.4422 17.47 39.2032 17.0599 38.7785C16.6498 38.3538 16.4192 37.7779 16.4185 37.1772V18.146C16.4185 16.8972 17.4002 15.8804 18.606 15.8804H28.231C29.4376 15.8804 30.4185 16.8972 30.4185 18.146V37.1772Z"
                                fill="white"
                              ></path>
                              <path
                                d="M28.231 16.7866H25.1685C25.1685 17.2673 24.9841 17.7283 24.6559 18.0683C24.3277 18.4082 23.8826 18.5991 23.4185 18.5991C22.9543 18.5991 22.5092 18.4082 22.181 18.0683C21.8528 17.7283 21.6685 17.2673 21.6685 16.7866H18.606C17.8823 16.7866 17.2935 17.3965 17.2935 18.146V37.1772C17.2935 37.9267 17.8823 38.5366 18.606 38.5366H28.231C28.9546 38.5366 29.5435 37.9267 29.5435 37.1772V18.146C29.5435 17.3965 28.9546 16.7866 28.231 16.7866ZM22.3947 30.4927C22.482 30.5721 22.5352 30.684 22.5428 30.804C22.5503 30.924 22.5115 31.0422 22.435 31.1326C22.3584 31.2229 22.2503 31.2781 22.1344 31.2859C22.0186 31.2937 21.9045 31.2536 21.8172 31.1742L18.3172 28.0024C18.2704 27.9598 18.2328 27.9074 18.2071 27.8487C18.1814 27.7899 18.1681 27.7261 18.1681 27.6616C18.1681 27.5971 18.1814 27.5333 18.2071 27.4746C18.2328 27.4158 18.2704 27.3634 18.3172 27.3209L21.8172 24.149C21.9047 24.0707 22.0185 24.0314 22.1339 24.0397C22.2493 24.0481 22.3567 24.1034 22.4328 24.1936C22.5089 24.2838 22.5474 24.4015 22.54 24.521C22.5325 24.6405 22.4796 24.7521 22.393 24.8314L19.271 27.6616L22.3947 30.4927ZM28.5197 28.0024L25.0197 31.1742C24.9766 31.2138 24.9264 31.2442 24.8719 31.2635C24.8174 31.2828 24.7597 31.2907 24.7022 31.2867C24.6448 31.2828 24.5886 31.267 24.5371 31.2404C24.4855 31.2138 24.4396 31.1768 24.402 31.1317C24.3257 31.0412 24.2872 30.9232 24.2949 30.8034C24.3026 30.6836 24.3559 30.5719 24.4431 30.4927L27.566 27.6616L24.4422 24.8305C24.3601 24.75 24.3113 24.6397 24.306 24.5227C24.3006 24.4057 24.3393 24.2912 24.4137 24.203C24.4882 24.1149 24.5927 24.0601 24.7053 24.05C24.818 24.0399 24.93 24.0754 25.018 24.149L28.518 27.3209C28.5648 27.3634 28.6023 27.4158 28.6281 27.4746C28.6538 27.5333 28.6671 27.5971 28.6671 27.6616C28.6671 27.7261 28.6538 27.7899 28.6281 27.8487C28.6023 27.9074 28.5648 27.9598 28.518 28.0024H28.5197ZM39.5981 29.3808L38.3652 28.6603C38.4133 28.3232 38.437 27.9897 38.437 27.6616C38.437 27.3336 38.4133 27.0001 38.3652 26.6629L39.599 25.9425C39.7004 25.8833 39.7894 25.8037 39.8608 25.7084C39.9321 25.6132 39.9844 25.5041 40.0146 25.3876C40.0447 25.2711 40.0521 25.1496 40.0364 25.0301C40.0206 24.9107 39.9819 24.7957 39.9227 24.6918L38.1298 21.5535C38.0133 21.3494 37.8241 21.2007 37.603 21.1394C37.3818 21.0781 37.1463 21.1089 36.9468 21.2254L35.6921 21.9595C35.1627 21.5378 34.5794 21.1944 33.9587 20.9391V19.5054C33.9587 19.265 33.8665 19.0345 33.7024 18.8646C33.5383 18.6946 33.3158 18.5991 33.0837 18.5991H32.1685V24.0366C33.0967 24.0366 33.987 24.4185 34.6433 25.0984C35.2997 25.7782 35.6685 26.7002 35.6685 27.6616C35.6685 28.623 35.2997 29.5451 34.6433 30.2249C33.987 30.9047 33.0967 31.2866 32.1685 31.2866V36.7241H33.0846C33.3166 36.7241 33.5392 36.6286 33.7033 36.4587C33.8674 36.2887 33.9596 36.0582 33.9596 35.8179V34.386C34.5801 34.1303 35.1634 33.7869 35.693 33.3656L36.9477 34.0987C37.1471 34.2152 37.3827 34.2461 37.6039 34.1848C37.825 34.1234 38.0142 33.9748 38.1307 33.7707L39.9218 30.6314C39.9811 30.5276 40.0197 30.4126 40.0355 30.2931C40.0513 30.1736 40.0438 30.0521 40.0137 29.9356C39.9835 29.8192 39.9313 29.7101 39.8599 29.6148C39.7885 29.5195 39.6995 29.44 39.5981 29.3808Z"
                                fill="white"
                              ></path>
                            </svg>