<?xml version="1.0" encoding="UTF-8"?>
<svg version="1.1" xmlns="http://www.w3.org/2000/svg" width="38" height="38">
<path d="M0 0 C0.83402344 -0.00386719 1.66804687 -0.00773438 2.52734375 -0.01171875 C3.82865234 0.00568359 3.82865234 0.00568359 5.15625 0.0234375 C6.02378906 0.01183594 6.89132812 0.00023438 7.78515625 -0.01171875 C9.03619141 -0.00591797 9.03619141 -0.00591797 10.3125 0 C11.45428711 0.00507568 11.45428711 0.00507568 12.61914062 0.01025391 C15.17595102 0.49746969 16.08792497 1.35575025 17.65625 3.3984375 C17.65625 4.0584375 17.65625 4.7184375 17.65625 5.3984375 C18.295625 5.5015625 18.935 5.6046875 19.59375 5.7109375 C20.274375 5.9378125 20.955 6.1646875 21.65625 6.3984375 C21.98625 7.3884375 22.31625 8.3784375 22.65625 9.3984375 C23.419375 9.2953125 24.1825 9.1921875 24.96875 9.0859375 C27.65625 9.3984375 27.65625 9.3984375 29.59375 11.5234375 C30.95558161 15.20839361 30.211311 16.87908892 28.65625 20.3984375 C29.31625 20.7284375 29.97625 21.0584375 30.65625 21.3984375 C30.02865135 24.32723121 29.07002341 26.75939379 27.65625 29.3984375 C26.00625 29.3984375 24.35625 29.3984375 22.65625 29.3984375 C21.99625 30.7184375 21.33625 32.0384375 20.65625 33.3984375 C19.66625 33.3984375 18.67625 33.3984375 17.65625 33.3984375 C17.5325 34.0378125 17.40875 34.6771875 17.28125 35.3359375 C16.971875 36.356875 16.971875 36.356875 16.65625 37.3984375 C13.13066767 39.16122867 9.10229409 38.62557631 5.21875 38.6484375 C3.91067383 38.679375 3.91067383 38.679375 2.57617188 38.7109375 C1.73763672 38.71609375 0.89910156 38.72125 0.03515625 38.7265625 C-1.11617798 38.74058105 -1.11617798 38.74058105 -2.29077148 38.75488281 C-4.34375 38.3984375 -4.34375 38.3984375 -6.0925293 37.32714844 C-8.02577742 34.34711718 -7.73307047 31.72924295 -7.7421875 28.2109375 C-7.74505768 27.51202393 -7.74792786 26.81311035 -7.75088501 26.09301758 C-7.75292425 24.61701649 -7.74740403 23.14098829 -7.73486328 21.66503906 C-7.7188058 19.40628612 -7.7347147 17.14932232 -7.75390625 14.890625 C-7.75192379 13.45572522 -7.74808006 12.02082655 -7.7421875 10.5859375 C-7.73880371 9.28011719 -7.73541992 7.97429688 -7.73193359 6.62890625 C-7.34375 3.3984375 -7.34375 3.3984375 -6.09033203 1.47412109 C-3.91604061 0.13502017 -2.54732369 0.01132384 0 0 Z M-2.34375 2.3984375 C-2.34375 2.7284375 -2.34375 3.0584375 -2.34375 3.3984375 C3.26661424 5.01920939 7.11870077 5.95422945 12.65625 3.3984375 C12.65625 3.0684375 12.65625 2.7384375 12.65625 2.3984375 C7.70625 2.3984375 2.75625 2.3984375 -2.34375 2.3984375 Z M-5.34375 5.3984375 C-5.34375 14.6384375 -5.34375 23.8784375 -5.34375 33.3984375 C-5.01375 33.3984375 -4.68375 33.3984375 -4.34375 33.3984375 C-4.34375 24.1584375 -4.34375 14.9184375 -4.34375 5.3984375 C-4.67375 5.3984375 -5.00375 5.3984375 -5.34375 5.3984375 Z M17.65625 14.3984375 C17.65625 17.6984375 17.65625 20.9984375 17.65625 24.3984375 C19.30625 23.7384375 20.95625 23.0784375 22.65625 22.3984375 C22.65625 20.4184375 22.65625 18.4384375 22.65625 16.3984375 C20.18125 15.4084375 20.18125 15.4084375 17.65625 14.3984375 Z M-2.34375 35.3984375 C-2.34375 35.7284375 -2.34375 36.0584375 -2.34375 36.3984375 C2.60625 36.3984375 7.55625 36.3984375 12.65625 36.3984375 C12.65625 36.0684375 12.65625 35.7384375 12.65625 35.3984375 C7.70625 35.3984375 2.75625 35.3984375 -2.34375 35.3984375 Z " fill="#FFFFFF" transform="translate(7.34375,-0.3984375)"/>
</svg>
