<?xml version="1.0" encoding="UTF-8"?>
<svg version="1.1" xmlns="http://www.w3.org/2000/svg" width="34" height="30">
<path d="M0 0 C0.77085937 -0.03738281 1.54171875 -0.07476563 2.3359375 -0.11328125 C4.625 0.3125 4.625 0.3125 6.3046875 2.28515625 C9.920209 5.44417251 13.72806414 4.9857041 18.375 5.0625 C21.4275 5.145 24.48 5.2275 27.625 5.3125 C27.625 13.2325 27.625 21.1525 27.625 29.3125 C24.72274449 30.76362776 22.17588766 30.44235159 18.9375 30.4453125 C17.95003784 30.44674759 17.95003784 30.44674759 16.94262695 30.44821167 C15.55061752 30.44889225 14.1586049 30.44704646 12.76660156 30.44287109 C10.63339117 30.43752104 8.50039133 30.44282012 6.3671875 30.44921875 C5.01562453 30.44855795 3.6640617 30.44727674 2.3125 30.4453125 C0.46205078 30.44362061 0.46205078 30.44362061 -1.42578125 30.44189453 C-4.375 30.3125 -4.375 30.3125 -6.375 29.3125 C-6.375 20.0725 -6.375 10.8325 -6.375 1.3125 C-4.07513269 0.16256634 -2.56030912 0.0808071 0 0 Z M11.625 13.3125 C10.635 16.2825 9.645 19.2525 8.625 22.3125 C10.79538477 21.51950294 10.79538477 21.51950294 11.2578125 19.46484375 C11.42023437 18.73394531 11.58265625 18.00304687 11.75 17.25 C11.91757812 16.51652344 12.08515625 15.78304688 12.2578125 15.02734375 C12.37898438 14.46144531 12.50015625 13.89554688 12.625 13.3125 C12.295 13.3125 11.965 13.3125 11.625 13.3125 Z M5.625 14.3125 C4.14 16.2925 4.14 16.2925 2.625 18.3125 C4.605 19.3025 4.605 19.3025 6.625 20.3125 C6.295 19.3225 5.965 18.3325 5.625 17.3125 C5.625 16.3225 5.625 15.3325 5.625 14.3125 Z M14.625 14.3125 C14.810625 14.93125 14.99625 15.55 15.1875 16.1875 C15.625 18.3125 15.625 18.3125 14.625 20.3125 C15.945 19.6525 17.265 18.9925 18.625 18.3125 C17.305 16.9925 15.985 15.6725 14.625 14.3125 Z " fill="#FFFFFF" transform="translate(6.375,-0.3125)"/>
<path d="M0 0 C2.95839355 -0.02689449 5.91654427 -0.04678741 8.875 -0.0625 C9.71675781 -0.07087891 10.55851562 -0.07925781 11.42578125 -0.08789062 C12.23144531 -0.09111328 13.03710938 -0.09433594 13.8671875 -0.09765625 C14.98262939 -0.10551147 14.98262939 -0.10551147 16.12060547 -0.11352539 C18 0 18 0 20 1 C20 1.99 20 2.98 20 4 C14.06 4 8.12 4 2 4 C1.34 2.68 0.68 1.36 0 0 Z " fill="#FFFFFF" transform="translate(14,0)"/>
</svg>
