<?xml version="1.0" encoding="UTF-8"?>
<svg version="1.1" xmlns="http://www.w3.org/2000/svg" width="32" height="32">
<path d="M0 0 C10.56 0 21.12 0 32 0 C32 5.61 32 11.22 32 17 C29.2022735 18.39886325 26.87611108 18.12974597 23.75 18.1328125 C22.5021875 18.13410156 21.254375 18.13539062 19.96875 18.13671875 C18.6590625 18.13285156 17.349375 18.12898438 16 18.125 C14.03546875 18.13080078 14.03546875 18.13080078 12.03125 18.13671875 C10.15953125 18.13478516 10.15953125 18.13478516 8.25 18.1328125 C7.10015625 18.13168457 5.9503125 18.13055664 4.765625 18.12939453 C2 18 2 18 0 17 C0 11.39 0 5.78 0 0 Z M9 5 C9 6.65 9 8.3 9 10 C9.33 10 9.66 10 10 10 C10 8.35 10 6.7 10 5 C9.67 5 9.34 5 9 5 Z M13 5 C13 6.65 13 8.3 13 10 C13.33 10 13.66 10 14 10 C14 8.35 14 6.7 14 5 C13.67 5 13.34 5 13 5 Z M19 7 C19 7.66 19 8.32 19 9 C19.66 9 20.32 9 21 9 C21 8.34 21 7.68 21 7 C20.34 7 19.68 7 19 7 Z " fill="#FFFFFF" transform="translate(0,12)"/>
<path d="M0 0 C1.2478125 -0.00128906 2.495625 -0.00257812 3.78125 -0.00390625 C5.0909375 -0.00003906 6.400625 0.00382813 7.75 0.0078125 C9.0596875 0.00394531 10.369375 0.00007812 11.71875 -0.00390625 C13.59046875 -0.00197266 13.59046875 -0.00197266 15.5 0 C16.64984375 0.00112793 17.7996875 0.00225586 18.984375 0.00341797 C21.75 0.1328125 21.75 0.1328125 23.75 1.1328125 C23.75 3.7728125 23.75 6.4128125 23.75 9.1328125 C13.19 9.1328125 2.63 9.1328125 -8.25 9.1328125 C-8.25 6.4928125 -8.25 3.8528125 -8.25 1.1328125 C-5.4522735 -0.26605075 -3.12611108 0.00306653 0 0 Z M9.75 5.1328125 C9.75 5.4628125 9.75 5.7928125 9.75 6.1328125 C12.72 6.1328125 15.69 6.1328125 18.75 6.1328125 C18.75 5.8028125 18.75 5.4728125 18.75 5.1328125 C15.78 5.1328125 12.81 5.1328125 9.75 5.1328125 Z " fill="#FFFFFF" transform="translate(8.25,1.8671875)"/>
</svg>
