<?xml version="1.0" encoding="UTF-8"?>
<svg version="1.1" xmlns="http://www.w3.org/2000/svg" width="38" height="38">
<path d="M0 0 C1.71316406 -0.00773438 1.71316406 -0.00773438 3.4609375 -0.015625 C4.64945313 -0.00015625 5.83796875 0.0153125 7.0625 0.03125 C8.25101563 0.01578125 9.43953125 0.0003125 10.6640625 -0.015625 C11.80617188 -0.01046875 12.94828125 -0.0053125 14.125 0 C15.16785156 0.00451172 16.21070313 0.00902344 17.28515625 0.01367188 C20.82300563 0.67297573 21.98632322 1.61094023 24.0625 4.53125 C24.58007812 7.30859375 24.58007812 7.30859375 24.59375 10.46875 C24.60148437 12.18191406 24.60148437 12.18191406 24.609375 13.9296875 C24.59390625 15.11820313 24.5784375 16.30671875 24.5625 17.53125 C24.57796875 18.71976563 24.5934375 19.90828125 24.609375 21.1328125 C24.60421875 22.27492188 24.5990625 23.41703125 24.59375 24.59375 C24.58923828 25.63660156 24.58472656 26.67945313 24.58007812 27.75390625 C23.92077427 31.29175563 22.98280977 32.45507322 20.0625 34.53125 C17.28515625 35.04882812 17.28515625 35.04882812 14.125 35.0625 C12.41183594 35.07023437 12.41183594 35.07023437 10.6640625 35.078125 C9.47554687 35.06265625 8.28703125 35.0471875 7.0625 35.03125 C5.87398437 35.04671875 4.68546875 35.0621875 3.4609375 35.078125 C2.31882812 35.07296875 1.17671875 35.0678125 0 35.0625 C-1.04285156 35.05798828 -2.08570313 35.05347656 -3.16015625 35.04882812 C-6.69800563 34.38952427 -7.86132322 33.45155977 -9.9375 30.53125 C-10.45507812 27.75390625 -10.45507812 27.75390625 -10.46875 24.59375 C-10.47390625 23.45164062 -10.4790625 22.30953125 -10.484375 21.1328125 C-10.46890625 19.94429687 -10.4534375 18.75578125 -10.4375 17.53125 C-10.45296875 16.34273437 -10.4684375 15.15421875 -10.484375 13.9296875 C-10.47921875 12.78757812 -10.4740625 11.64546875 -10.46875 10.46875 C-10.46423828 9.42589844 -10.45972656 8.38304687 -10.45507812 7.30859375 C-9.3255933 1.24773555 -5.70802268 0.02469478 0 0 Z M8.0625 11.53125 C6.7425 15.49125 5.4225 19.45125 4.0625 23.53125 C4.7225 23.53125 5.3825 23.53125 6.0625 23.53125 C7.3825 19.57125 8.7025 15.61125 10.0625 11.53125 C9.4025 11.53125 8.7425 11.53125 8.0625 11.53125 Z M-1.5625 15.03125 C-2.01625 15.52625 -2.47 16.02125 -2.9375 16.53125 C-2.2775 17.85125 -1.6175 19.17125 -0.9375 20.53125 C0.0525 20.53125 1.0425 20.53125 2.0625 20.53125 C1.4025 19.21125 0.7425 17.89125 0.0625 16.53125 C0.7225 15.54125 1.3825 14.55125 2.0625 13.53125 C-0.06114481 13.30515663 -0.06114481 13.30515663 -1.5625 15.03125 Z M12.0625 13.53125 C12.43375 14.294375 12.805 15.0575 13.1875 15.84375 C13.47625 16.730625 13.765 17.6175 14.0625 18.53125 C13.4025 19.52125 12.7425 20.51125 12.0625 21.53125 C13.3825 20.87125 14.7025 20.21125 16.0625 19.53125 C16.0625 18.21125 16.0625 16.89125 16.0625 15.53125 C14.7425 14.87125 13.4225 14.21125 12.0625 13.53125 Z " fill="#FFFFFF" transform="translate(11.9375,1.46875)"/>
</svg>
